<mxfile host="app.diagrams.net" modified="2023-06-09T07:02:14.000Z" agent="Mozilla/5.0 (Windows NT 10.0; Win64; x64; rv:109.0) Gecko/20100101 Firefox/113.0" version="21.3.7" etag="h5y2_-pQ6_fpT6qHBDUV" type="github">
  <diagram name="Page-1" id="VaPdvUSg-dVa8mEtISIr">
    <mxGraphModel>
      <root>
        <mxCell id="0" />
        <mxCell id="1" parent="0" />
      </root>
    </mxGraphModel>
  </diagram>
</mxfile>
